<svg width="18" height="12" viewBox="0 0 18 12" fill="none" xmlns="http://www.w3.org/2000/svg">
<path fill-rule="evenodd" clip-rule="evenodd" d="M16.7759 0.693848H15.7759C15.2236 0.693848 14.7759 1.16759 14.7759 1.75199V10.9226C14.7759 11.507 15.2236 11.9807 15.7759 11.9807H16.7759C17.3282 11.9807 17.7759 11.507 17.7759 10.9226V1.75199C17.7759 1.16759 17.3282 0.693848 16.7759 0.693848ZM11.1092 3.16285H12.1092C12.6615 3.16285 13.1092 3.6366 13.1092 4.221V10.9226C13.1092 11.507 12.6615 11.9807 12.1092 11.9807H11.1092C10.5569 11.9807 10.1092 11.507 10.1092 10.9226V4.221C10.1092 3.6366 10.5569 3.16285 11.1092 3.16285ZM7.44254 5.63185H6.44254C5.89025 5.63185 5.44254 6.1056 5.44254 6.68999V10.9226C5.44254 11.507 5.89025 11.9807 6.44254 11.9807H7.44254C7.99482 11.9807 8.44254 11.507 8.44254 10.9226V6.68999C8.44254 6.1056 7.99482 5.63185 7.44254 5.63185ZM2.77588 7.74814H1.77588C1.22359 7.74814 0.775879 8.22188 0.775879 8.80628V10.9226C0.775879 11.507 1.22359 11.9807 1.77588 11.9807H2.77588C3.32816 11.9807 3.77588 11.507 3.77588 10.9226V8.80628C3.77588 8.22188 3.32816 7.74814 2.77588 7.74814Z" fill="#333333"/>
</svg>
