<svg width="154" height="17" viewBox="0 0 154 17" fill="none" xmlns="http://www.w3.org/2000/svg">
<path d="M0 15.6878H5.66163V15.3861C3.62507 15.106 3.0141 14.2009 3.0141 12.0243V2.13303H3.1363L8.43135 15.7093H9.16451L13.9097 2.13303H14.0115V14.1578C14.0115 15.0198 13.5024 15.3214 12.0564 15.3861V15.6878H19.0825V15.3861C17.3718 15.3214 16.9645 14.9767 16.9645 14.1578V2.19768C16.9645 1.37879 17.3718 1.01245 19.0825 0.9478V0.667653H13.8893L10.0402 11.7442H9.9384L5.74309 0.667653H0V0.9478C1.75144 0.990898 2.50497 1.98218 2.50497 3.27517V12.0243C2.50497 14.2009 1.91436 15.1275 0 15.3861V15.6878Z" fill="black"/>
<path d="M29.1242 13.7052C29.5111 14.8474 29.1446 15.2999 27.1895 15.3861V15.6878H34.4803V15.3861C32.9529 15.1491 32.6474 14.8043 32.1994 13.5544L27.5968 0.322857H26.2119L21.9963 11.8735C21.1613 14.0931 20.3874 15.0198 19.0636 15.3861V15.6878H23.8699V15.3861C21.9759 15.106 21.65 14.2871 22.485 11.9597L23.1775 9.97712H27.8615L29.1242 13.7052ZM23.3404 9.54613L25.5399 3.31827H25.6417L27.719 9.54613H23.3404Z" fill="black"/>
<path d="M34.7055 15.6878H41.6909C46.9656 15.6878 49.1039 11.9381 49.1039 7.90835C49.1039 3.68461 46.5379 0.667653 41.365 0.667653H34.7055V0.9478C36.3958 1.01245 36.8235 1.37879 36.8235 2.19768V14.1578C36.8235 14.9767 36.3958 15.3214 34.7055 15.3861V15.6878ZM39.7969 15.2783V1.05555H41.0188C44.2366 1.05555 45.8658 2.58558 45.8658 8.12385C45.8658 13.6406 44.6031 15.2783 41.0595 15.2783H39.7969Z" fill="black"/>
<path d="M54.4943 15.6878H61.5408V15.3861C60.0745 15.3214 59.5857 15.0413 59.5857 14.1578V8.1023H65.3288V14.1578C65.3288 15.0413 64.8196 15.3214 63.3533 15.3861V15.6878H70.4202V15.3861C68.7095 15.3214 68.3022 14.9982 68.3022 14.1578V2.17613C68.3022 1.35724 68.7095 1.01245 70.4202 0.9478V0.667653H63.3533V0.9478C64.8196 1.01245 65.3288 1.31414 65.3288 2.17613V7.67131H59.5857V2.17613C59.5857 1.31414 60.0745 1.01245 61.5408 0.9478V0.667653H54.4943V0.9478C56.1846 1.01245 56.6123 1.35724 56.6123 2.17613V14.1578C56.6123 14.9982 56.1846 15.3214 54.4943 15.3861V15.6878Z" fill="black"/>
<path d="M80.4558 13.7052C80.8427 14.8474 80.4762 15.2999 78.5211 15.3861V15.6878H85.8119V15.3861C84.2845 15.1491 83.979 14.8043 83.531 13.5544L78.9284 0.322857H77.5435L73.3278 11.8735C72.4929 14.0931 71.7189 15.0198 70.3952 15.3861V15.6878H75.2015V15.3861C73.3075 15.106 72.9816 14.2871 73.8166 11.9597L74.509 9.97712H79.1931L80.4558 13.7052ZM74.672 9.54613L76.8714 3.31827H76.9733L79.0506 9.54613H74.672Z" fill="black"/>
<path d="M87.5974 15.6878H95.2956V15.3861C93.4831 15.343 92.9332 14.9767 92.9332 14.1578V1.05555H93.422C94.9901 1.05555 96.2121 2.71487 97.6376 5.64563L97.9431 5.60253L97.8413 0.667653H85.0314L84.9092 5.60253L85.2147 5.64563C86.6606 2.65023 87.9029 1.05555 89.4507 1.05555H89.9598V14.1578C89.9598 14.9767 89.3896 15.343 87.5974 15.3861V15.6878Z" fill="black"/>
<path d="M102.096 15.6878H109.794V15.3861C107.982 15.343 107.432 14.9767 107.432 14.1578V1.05555H107.921C109.489 1.05555 110.711 2.71487 112.136 5.64563L112.442 5.60253L112.34 0.667653H99.5299L99.4077 5.60253L99.7132 5.64563C101.159 2.65023 102.401 1.05555 103.949 1.05555H104.458V14.1578C104.458 14.9767 103.888 15.343 102.096 15.3861V15.6878Z" fill="black"/>
<path d="M113.94 15.6878H126.628L126.73 10.2788L126.424 10.2357C124.938 13.9423 124.001 15.2783 121.048 15.2783H119.032V8.08075H119.887C121.516 8.08075 122.453 8.83499 123.003 11.0546H123.268V4.7621H123.003C122.453 6.96016 121.516 7.69285 119.887 7.69285H119.032V1.05555H121.15C123.655 1.05555 124.429 2.47783 125.854 5.81803L126.16 5.79648L126.099 0.667653H113.94V0.9478C115.631 1.01245 116.058 1.37879 116.058 2.19768V14.1578C116.058 14.9767 115.631 15.3214 113.94 15.3861V15.6878Z" fill="black"/>
<path d="M133.59 7.90835V1.05555H134.751C137.296 1.05555 138.07 2.34853 138.07 4.5035C138.07 6.93862 137.52 7.90835 134.975 7.90835H133.59ZM133.59 8.2747H134.73C137.052 8.2747 137.602 9.00739 137.806 11.1839L137.968 13.0587C138.131 14.9551 138.559 15.7955 141.105 15.7955C141.777 15.7955 142.51 15.7309 143.264 15.6016V15.343C141.573 15.2999 141.288 15.0198 141.044 13.2742L140.921 11.6149C140.657 9.58923 139.862 8.1885 136.869 8.08075V8.0161C140.066 7.54201 141.186 6.16283 141.186 4.30955C141.186 2.32698 139.679 0.667653 135.443 0.667653H128.498V0.9478C130.189 1.01245 130.617 1.37879 130.617 2.19768V14.1578C130.617 14.9767 130.189 15.3214 128.498 15.3861V15.6878H135.606V15.3861C134.119 15.3214 133.59 15.0198 133.59 14.1578V8.2747Z" fill="black"/>
<path d="M144.021 16.0541H144.265L145.467 14.9767C146.444 15.5585 147.931 15.9679 149.072 15.9679C152.574 15.9679 154 13.4251 154 10.9253C154 8.12385 151.882 7.21876 149.927 6.57227C147.544 5.77493 146.281 4.97759 146.281 3.29672C146.281 1.68049 147.503 0.796951 148.786 0.796951C150.375 0.796951 151.678 2.17613 153.022 5.12844H153.348V0.258209H153.104L152.208 1.2064C151.454 0.753852 150.293 0.387507 149.092 0.387507C146.241 0.387507 144.225 2.24078 144.225 5.08534C144.225 7.86525 146.383 8.70569 148.522 9.45993C150.966 10.3219 152.187 11.1624 152.187 12.9079C152.187 14.2655 151.23 15.5585 149.377 15.5585C147.361 15.5585 145.691 13.5975 144.347 10.6021H144.021V16.0541Z" fill="black"/>
</svg>
