<svg width="246" height="24" viewBox="0 0 246 24" fill="none" xmlns="http://www.w3.org/2000/svg">
<path d="M0 23.276H9.03733V22.8209C5.78649 22.3983 4.81124 21.0329 4.81124 17.7496V2.82823H5.00629L13.4585 23.3085H14.6288L22.2032 2.82823H22.3658V20.9679C22.3658 22.2682 21.5531 22.7234 19.245 22.8209V23.276H30.4604V22.8209C27.7296 22.7234 27.0795 22.2032 27.0795 20.9679V2.92575C27.0795 1.69044 27.7296 1.13779 30.4604 1.04027V0.617659H22.1707L16.0266 17.327H15.8641L9.16736 0.617659H0V1.04027C2.79572 1.10528 3.99853 2.60067 3.99853 4.55117V17.7496C3.99853 21.0329 3.05579 22.4308 0 22.8209V23.276Z" fill="white"/>
<path d="M46.4893 20.2852C47.1069 22.0082 46.5218 22.6908 43.401 22.8209V23.276H55.039V22.8209C52.6008 22.4633 52.1132 21.9432 51.398 20.0577L44.0511 0.0975239H41.8406L35.1113 17.522C33.7785 20.8704 32.5432 22.2682 30.4301 22.8209V23.276H38.1021V22.8209C35.0788 22.3983 34.5587 21.163 35.8915 17.6521L36.9968 14.6613H44.4738L46.4893 20.2852ZM37.2569 14.0111L40.7678 4.61619H40.9303L44.2462 14.0111H37.2569Z" fill="white"/>
<path d="M55.3983 23.276H66.5487C74.9684 23.276 78.3818 17.6195 78.3818 11.5405C78.3818 5.16883 74.2857 0.617659 66.0286 0.617659H55.3983V1.04027C58.0965 1.13779 58.7792 1.69044 58.7792 2.92575V20.9679C58.7792 22.2032 58.0965 22.7234 55.3983 22.8209V23.276ZM63.5254 22.6583V1.20281H65.4759C70.6123 1.20281 73.2129 3.5109 73.2129 11.8656C73.2129 20.1877 71.1974 22.6583 65.541 22.6583H63.5254Z" fill="white"/>
<path d="M86.9861 23.276H98.234V22.8209C95.8934 22.7234 95.1132 22.3007 95.1132 20.9679V11.833H104.281V20.9679C104.281 22.3007 103.468 22.7234 101.127 22.8209V23.276H112.408V22.8209C109.677 22.7234 109.027 22.2357 109.027 20.9679V2.89325C109.027 1.65793 109.677 1.13779 112.408 1.04027V0.617659H101.127V1.04027C103.468 1.13779 104.281 1.59291 104.281 2.89325V11.1829H95.1132V2.89325C95.1132 1.59291 95.8934 1.13779 98.234 1.04027V0.617659H86.9861V1.04027C89.6843 1.13779 90.367 1.65793 90.367 2.89325V20.9679C90.367 22.2357 89.6843 22.7234 86.9861 22.8209V23.276Z" fill="white"/>
<path d="M128.427 20.2852C129.045 22.0082 128.459 22.6908 125.339 22.8209V23.276H136.977V22.8209C134.538 22.4633 134.051 21.9432 133.336 20.0577L125.989 0.0975239H123.778L117.049 17.522C115.716 20.8704 114.481 22.2682 112.368 22.8209V23.276H120.04V22.8209C117.016 22.3983 116.496 21.163 117.829 17.6521L118.934 14.6613H126.411L128.427 20.2852ZM119.195 14.0111L122.705 4.61619H122.868L126.184 14.0111H119.195Z" fill="white"/>
<path d="M139.827 23.276H152.115V22.8209C149.222 22.7559 148.344 22.2032 148.344 20.9679V1.20281H149.124C151.627 1.20281 153.578 3.70595 155.853 8.1271L156.341 8.06208L156.178 0.617659H135.731L135.536 8.06208L136.023 8.1271C138.331 3.60843 140.314 1.20281 142.785 1.20281H143.598V20.9679C143.598 22.2032 142.687 22.7559 139.827 22.8209V23.276Z" fill="white"/>
<path d="M162.97 23.276H175.258V22.8209C172.365 22.7559 171.487 22.2032 171.487 20.9679V1.20281H172.267C174.77 1.20281 176.721 3.70595 178.996 8.1271L179.484 8.06208L179.322 0.617659H158.874L158.679 8.06208L159.166 8.1271C161.474 3.60843 163.457 1.20281 165.928 1.20281H166.741V20.9679C166.741 22.2032 165.831 22.7559 162.97 22.8209V23.276Z" fill="white"/>
<path d="M181.876 23.276H202.129L202.292 15.1164L201.804 15.0514C199.431 20.6428 197.935 22.6583 193.222 22.6583H190.003V11.8005H191.369C193.969 11.8005 195.465 12.9383 196.342 16.2867H196.765V6.79425H196.342C195.465 10.1101 193.969 11.2154 191.369 11.2154H190.003V1.20281H193.384C197.383 1.20281 198.618 3.34836 200.894 8.38716L201.381 8.35465L201.284 0.617659H181.876V1.04027C184.574 1.13779 185.257 1.69044 185.257 2.92575V20.9679C185.257 22.2032 184.574 22.7234 181.876 22.8209V23.276Z" fill="white"/>
<path d="M213.242 11.5405V1.20281H215.095C219.158 1.20281 220.394 3.15331 220.394 6.40415C220.394 10.0776 219.516 11.5405 215.452 11.5405H213.242ZM213.242 12.0931H215.062C218.768 12.0931 219.646 13.1984 219.971 16.4818L220.231 19.31C220.491 22.1707 221.174 23.4385 225.237 23.4385C226.31 23.4385 227.48 23.341 228.683 23.146V22.7559C225.985 22.6908 225.53 22.2682 225.14 19.6351L224.945 17.1319C224.522 14.0761 223.254 11.9631 218.476 11.8005V11.703C223.579 10.9878 225.367 8.9073 225.367 6.11158C225.367 3.1208 222.962 0.617659 216.2 0.617659H205.115V1.04027C207.813 1.13779 208.496 1.69044 208.496 2.92575V20.9679C208.496 22.2032 207.813 22.7234 205.115 22.8209V23.276H216.46V22.8209C214.087 22.7234 213.242 22.2682 213.242 20.9679V12.0931Z" fill="white"/>
<path d="M229.892 23.8286H230.282L232.2 22.2032C233.761 23.0809 236.134 23.6986 237.954 23.6986C243.546 23.6986 245.821 19.8626 245.821 16.0916C245.821 11.8656 242.44 10.5002 239.32 9.52496C235.516 8.32215 233.501 7.11934 233.501 4.58368C233.501 2.14555 235.451 0.812709 237.499 0.812709C240.035 0.812709 242.115 2.89325 244.261 7.34689H244.781V0H244.391L242.961 1.43037C241.758 0.747693 239.905 0.19505 237.987 0.19505C233.436 0.19505 230.217 2.99077 230.217 7.28188C230.217 11.4755 233.663 12.7433 237.077 13.8811C240.978 15.1814 242.928 16.4492 242.928 19.0824C242.928 21.1304 241.4 23.0809 238.442 23.0809C235.224 23.0809 232.558 20.1227 230.412 15.604H229.892V23.8286Z" fill="white"/>
</svg>
