<svg width="17" height="12" viewBox="0 0 17 12" fill="none" xmlns="http://www.w3.org/2000/svg">
<path fill-rule="evenodd" clip-rule="evenodd" d="M8.43983 2.74809C10.6557 2.74819 12.7869 3.64914 14.3928 5.26471C14.5138 5.38944 14.7071 5.38786 14.8262 5.26118L15.9822 4.02668C16.0425 3.96243 16.0761 3.87539 16.0756 3.78484C16.0751 3.69428 16.0405 3.60767 15.9795 3.54417C11.7644 -0.730258 5.11459 -0.730258 0.899495 3.54417C0.838437 3.60762 0.803793 3.69421 0.80323 3.78476C0.802667 3.87532 0.836231 3.96238 0.896495 4.02668L2.05283 5.26118C2.17186 5.38806 2.3653 5.38963 2.48616 5.26471C4.09231 3.64903 6.22372 2.74808 8.43983 2.74809ZM8.43983 6.76445C9.65732 6.76437 10.8314 7.24321 11.7338 8.10794C11.8559 8.23066 12.0482 8.228 12.1672 8.10194L13.3218 6.86744C13.3826 6.80269 13.4164 6.71485 13.4155 6.62357C13.4146 6.53228 13.3792 6.44519 13.3172 6.38175C10.569 3.67673 6.31302 3.67673 3.56482 6.38175C3.50274 6.44518 3.46732 6.53233 3.46651 6.62364C3.46569 6.71495 3.49955 6.80278 3.56048 6.86744L4.71482 8.10194C4.83381 8.228 5.02609 8.23066 5.14815 8.10794C6.05003 7.24379 7.22314 6.76498 8.43983 6.76445ZM10.7528 9.46675C10.7546 9.55829 10.7206 9.64654 10.6588 9.71067L8.6615 11.8435C8.60295 11.9062 8.52312 11.9415 8.43983 11.9415C8.35654 11.9415 8.27671 11.9062 8.21816 11.8435L6.22049 9.71067C6.15878 9.64649 6.12483 9.55821 6.12666 9.46667C6.12849 9.37514 6.16593 9.28846 6.23015 9.2271C7.50573 8.08548 9.37393 8.08548 10.6495 9.2271C10.7137 9.28851 10.7511 9.37521 10.7528 9.46675Z" fill="#333333"/>
</svg>
